<?xml version="1.0" encoding="utf-8"?>
<!-- Generator: Adobe Illustrator 18.1.0, SVG Export Plug-In . SVG Version: 6.00 Build 0)  -->
<svg version="1.1" id="Слой_1" xmlns="http://www.w3.org/2000/svg" xmlns:xlink="http://www.w3.org/1999/xlink" x="0px" y="0px"
	 viewBox="0 0 59 58.9" enable-background="new 0 0 59 58.9" xml:space="preserve">
<g>
	<g>
		<defs>
			<path id="SVGID_1_" d="M48.9,8.2C47.8,8.2,47,9,47,10.1c0,1,0.9,1.9,1.9,1.9s1.9-0.9,1.9-1.9C50.8,9,49.9,8.2,48.9,8.2z
				 M10.1,8.2c-1.1,0-1.9,0.9-1.9,1.9c0,1,0.9,1.9,1.9,1.9c1.1,0,1.9-0.9,1.9-1.9C12,9,11.2,8.2,10.1,8.2z M21.8,20.5l0.2-3.3
				c0-0.8,0.3-1.6,0.7-2.2l-8.9-4.8c0,0.7-0.2,1.3-0.6,1.9c0.1,0,0.2,0.1,0.3,0.2L21.8,20.5z M11.1,45.3c0.8,0.2,1.5,0.7,1.9,1.4
				l8.5-5.9c-0.5-1.2-0.8-2.6-0.7-4l0.1-1.2L11.1,45.3z M10.1,50.7c1.1,0,1.9-0.9,1.9-1.9c0-1-0.9-1.9-1.9-1.9
				c-1.1,0-1.9,0.9-1.9,1.9C8.2,49.9,9.1,50.7,10.1,50.7z M24.9,42.6v-2.1c0-0.5,0.4-0.9,0.9-0.9c0.5,0,0.9,0.4,0.9,0.9v2.8
				c0,0.1,0,0.2-0.1,0.4c0.9,0.4,1.9,0.6,2.9,0.6s2-0.2,2.9-0.6c0-0.1-0.1-0.2-0.1-0.4v-2.8c0-0.5,0.4-0.9,0.9-0.9
				c0.5,0,0.9,0.4,0.9,0.9v2.1c0.2-0.2,0.3-0.3,0.5-0.5c1.3-1.4,2-3.2,1.9-5.2l-1.2-19.6c-0.1-0.9-0.5-1.7-1.2-2.2l-1.7-0.4
				c0,0-5.7-0.1-5.7-0.1c0,0-1.7,0.5-1.7,0.5c-0.7,0.5-1.2,1.3-1.2,2.2l-1.2,19.6c-0.1,1.9,0.6,3.8,1.9,5.2
				C24.6,42.2,24.8,42.4,24.9,42.6z M45.9,46.7c0.5-0.7,1.1-1.1,1.9-1.4l-9.8-9.7l0.1,1.2c0.1,1.4-0.2,2.8-0.7,4L45.9,46.7z
				 M48.9,50.7c1.1,0,1.9-0.9,1.9-1.9c0-1-0.9-1.9-1.9-1.9S47,47.8,47,48.8C47,49.9,47.8,50.7,48.9,50.7z M45.5,12.2
				c0.1-0.1,0.2-0.2,0.3-0.2c-0.3-0.5-0.6-1.2-0.6-1.9L36.3,15c0.4,0.6,0.7,1.4,0.7,2.2l0.2,3.3L45.5,12.2z M57.5,19.9l-6.7-6.7
				c-0.6,0.3-1.2,0.5-1.9,0.5c-0.7,0-1.4-0.2-2-0.6c0,0.1-0.1,0.2-0.2,0.3l-9.2,9.2c0,0-0.1,0.1-0.1,0.1L38,33.2
				c0.2,0,0.3,0.1,0.4,0.2l12,12c0,0,0.1,0.1,0.1,0.1c0.1,0,0.2,0.1,0.2,0.1l6.7-6.7c0.2-0.2,0.4-0.3,0.6-0.3c0.2,0,0.4,0.1,0.6,0.3
				c0.3,0.3,0.3,0.9,0,1.2L52,46.9c0.3,0.5,0.5,1.2,0.5,1.9c0,2-1.6,3.6-3.6,3.6c-0.7,0-1.3-0.2-1.9-0.5l-6.7,6.7
				c-0.3,0.3-0.9,0.3-1.2,0c-0.3-0.3-0.3-0.9,0-1.2l6.7-6.7c-0.3-0.5-0.5-1.2-0.5-1.9c0-0.2,0-0.3,0-0.5l-8.7-6.1
				c-0.2,0.3-0.5,0.7-0.8,1C34.2,45,31.9,46,29.5,46s-4.7-1-6.3-2.7c-0.3-0.3-0.5-0.6-0.8-1l-8.7,6.1c0,0.1,0,0.3,0,0.5
				c0,0.7-0.2,1.3-0.5,1.9l6.7,6.7c0.3,0.3,0.3,0.9,0,1.2c-0.3,0.3-0.9,0.3-1.2,0L12,51.9c-0.6,0.3-1.2,0.5-1.9,0.5
				c-2,0-3.6-1.6-3.6-3.6c0-0.7,0.2-1.3,0.5-1.9l-6.7-6.7c-0.3-0.3-0.3-0.9,0-1.2c0.2-0.2,0.4-0.3,0.6-0.3c0.2,0,0.4,0.1,0.6,0.3
				l6.7,6.7c0.1,0,0.2-0.1,0.2-0.1c0-0.1,0.1-0.1,0.1-0.1l12-12c0.1-0.1,0.3-0.2,0.4-0.2l0.6-10.4c0,0-0.1-0.1-0.1-0.1l-9.2-9.2
				c-0.1-0.1-0.2-0.2-0.2-0.3c-0.6,0.4-1.2,0.6-2,0.6c-0.7,0-1.3-0.2-1.9-0.5l-6.7,6.7c-0.3,0.3-0.9,0.3-1.2,0
				c-0.3-0.3-0.3-0.9,0-1.2L7,12c-0.3-0.5-0.5-1.2-0.5-1.9c0-2,1.6-3.6,3.6-3.6c0.7,0,1.3,0.2,1.9,0.5l6.7-6.7
				C18.9,0.1,19.1,0,19.3,0c0.2,0,0.4,0.1,0.6,0.3c0.3,0.3,0.3,0.9,0,1.2L13.4,8l10.6,5.7c0.7-0.5,1.6-0.8,2.6-0.8h6
				c1,0,1.8,0.3,2.6,0.8L45.6,8L39,1.5c-0.3-0.3-0.3-0.9,0-1.2C39.2,0.1,39.4,0,39.7,0s0.4,0.1,0.6,0.3L47,7
				c0.6-0.3,1.2-0.5,1.9-0.5c2,0,3.6,1.6,3.6,3.6c0,0.7-0.2,1.3-0.5,1.9l6.7,6.7c0.3,0.3,0.3,0.9,0,1.2
				C58.4,20.3,57.9,20.3,57.5,19.9z"/>
		</defs>
		<use xlink:href="#SVGID_1_"  overflow="visible" fill-rule="evenodd" clip-rule="evenodd" fill="#FFFFFF"/>
		<clipPath id="SVGID_2_">
			<use xlink:href="#SVGID_1_"  overflow="visible"/>
		</clipPath>
		<g clip-path="url(#SVGID_2_)">
			<defs>
				<rect id="SVGID_3_" x="-764" y="-2750.6" width="1600" height="5341"/>
			</defs>
			<use xlink:href="#SVGID_3_"  overflow="visible" fill="#FFFFFF"/>
			<clipPath id="SVGID_4_">
				<use xlink:href="#SVGID_3_"  overflow="visible"/>
			</clipPath>
		</g>
	</g>
</g>
</svg>
