<?xml version="1.0" encoding="utf-8"?>
<!-- Generator: Adobe Illustrator 18.1.0, SVG Export Plug-In . SVG Version: 6.00 Build 0)  -->
<svg version="1.1" id="Слой_1" xmlns="http://www.w3.org/2000/svg" xmlns:xlink="http://www.w3.org/1999/xlink" x="0px" y="0px"
	 viewBox="0 0 100 100" enable-background="new 0 0 100 100" xml:space="preserve">
<g>
	<g>
		<defs>
			<circle id="SVGID_1_" cx="50" cy="50" r="50"/>
		</defs>
		<clipPath id="SVGID_2_">
			<use xlink:href="#SVGID_1_"  overflow="visible"/>
		</clipPath>
		<g clip-path="url(#SVGID_2_)">
			<defs>
				<rect id="SVGID_3_" x="-750" y="-2533" width="1600" height="5265"/>
			</defs>
			<clipPath id="SVGID_4_">
				<use xlink:href="#SVGID_3_"  overflow="visible"/>
			</clipPath>
			<rect x="-5" y="-5" clip-path="url(#SVGID_4_)" fill="#A0C751" width="110" height="110"/>
		</g>
	</g>
	<g>
		<defs>
			<path id="SVGID_5_" d="M72,58H29V30H72V58z M27,28v32h47V28H27z"/>
		</defs>
		<clipPath id="SVGID_6_">
			<use xlink:href="#SVGID_5_"  overflow="visible"/>
		</clipPath>
		<g clip-path="url(#SVGID_6_)">
			<defs>
				<rect id="SVGID_7_" x="-750" y="-2533" width="1600" height="5265"/>
			</defs>
			<clipPath id="SVGID_8_">
				<use xlink:href="#SVGID_7_"  overflow="visible"/>
			</clipPath>
			<rect x="22" y="23" clip-path="url(#SVGID_8_)" fill="#FFFFFF" width="57" height="42"/>
		</g>
	</g>
	<g>
		<defs>
			<path id="SVGID_9_" d="M47,40.3l6,3.2l-6,3.2V40.3z M45,37v13l12-6.5L45,37z"/>
		</defs>
		<clipPath id="SVGID_10_">
			<use xlink:href="#SVGID_9_"  overflow="visible"/>
		</clipPath>
		<g clip-path="url(#SVGID_10_)">
			<defs>
				<rect id="SVGID_11_" x="-750" y="-2533" width="1600" height="5265"/>
			</defs>
			<clipPath id="SVGID_12_">
				<use xlink:href="#SVGID_11_"  overflow="visible"/>
			</clipPath>
			<rect x="40" y="32" clip-path="url(#SVGID_12_)" fill="#FFFFFF" width="22" height="23"/>
		</g>
	</g>
	<g>
		<defs>
			<path id="SVGID_13_" d="M39.7,73c-1.6,0-2.9-1.3-2.9-3c0-1.7,1.3-3,2.9-3c1.6,0,2.9,1.3,2.9,3C42.7,71.7,41.3,73,39.7,73z
				 M44.5,69c-0.5-2.3-2.4-4-4.8-4c-2.4,0-4.3,1.7-4.8,4H27v2h7.9c0.5,2.3,2.4,4,4.8,4c2.4,0,4.3-1.7,4.8-4H74v-2H44.5z"/>
		</defs>
		<clipPath id="SVGID_14_">
			<use xlink:href="#SVGID_13_"  overflow="visible"/>
		</clipPath>
		<g clip-path="url(#SVGID_14_)">
			<defs>
				<rect id="SVGID_15_" x="-750" y="-2533" width="1600" height="5265"/>
			</defs>
			<clipPath id="SVGID_16_">
				<use xlink:href="#SVGID_15_"  overflow="visible"/>
			</clipPath>
			<rect x="22" y="60" clip-path="url(#SVGID_16_)" fill="#FFFFFF" width="57" height="20"/>
		</g>
	</g>
</g>
</svg>
