<svg xmlns="http://www.w3.org/2000/svg" xmlns:xlink="http://www.w3.org/1999/xlink" width="56" height="56" viewBox="0 0 56 56"><defs><path id="cl9ha" d="M137 599.78v6.44c0 .98-.8 1.78-1.78 1.78h-5.05a2.94 2.94 0 0 0-2.08 5.02l3.57 3.57c.7.7.7 1.82 0 2.52l-4.55 4.55c-.7.7-1.82.7-2.52 0l-3.57-3.57a2.94 2.94 0 0 0-5.02 2.08v5.05c0 .98-.8 1.78-1.78 1.78h-6.44c-.98 0-1.78-.8-1.78-1.78v-5.05a2.94 2.94 0 0 0-5.02-2.08l-3.57 3.57c-.7.7-1.82.7-2.52 0l-4.55-4.55c-.7-.7-.7-1.82 0-2.52l3.57-3.57a2.94 2.94 0 0 0-2.08-5.02h-5.05c-.98 0-1.78-.8-1.78-1.78v-6.44c0-.98.8-1.78 1.78-1.78h5.05a2.94 2.94 0 0 0 2.08-5.02l-3.57-3.57c-.7-.7-.7-1.82 0-2.52l4.55-4.55c.7-.7 1.82-.7 2.52 0l3.57 3.57a2.94 2.94 0 0 0 5.02-2.08v-5.05c0-.98.8-1.78 1.78-1.78h6.44c.98 0 1.78.8 1.78 1.78v5.05a2.94 2.94 0 0 0 5.02 2.08l3.57-3.57c.7-.7 1.82-.7 2.52 0l4.55 4.55c.7.7.7 1.82 0 2.52l-3.57 3.57a2.94 2.94 0 0 0 2.08 5.02h5.05c.98 0 1.78.8 1.78 1.78zM119 603a8 8 0 1 0-16 0 8 8 0 0 0 16 0z"/></defs><g><g transform="translate(-83 -575)"><use fill="#fff" fill-opacity="0" stroke="#8c8f94" stroke-miterlimit="50" stroke-width="2.2" xlink:href="#cl9ha"/></g></g></svg>