<svg xmlns="http://www.w3.org/2000/svg" xmlns:xlink="http://www.w3.org/1999/xlink" width="94" height="87" viewBox="0 0 94 87"><defs><path id="7c4fa" d="M946 371.42a9.4 9.4 0 0 0-9.4 9.35 9.4 9.4 0 0 0 18.8 0 9.4 9.4 0 0 0-9.4-9.35zm28.2 9.35c0-15.43-12.69-28.06-28.2-28.06s-28.2 12.63-28.2 28.06c0 10.3 5.64 19.18 14.1 24.33l4.7-7.95c-5.64-3.28-9.4-9.36-9.4-15.9a18.81 18.81 0 0 1 37.6 0c0 7-3.76 13.09-9.4 15.9l4.7 7.95c8.46-5.15 14.1-14.04 14.1-24.33zM946 334c-25.85 0-47 21.05-47 46.77 0 17.31 9.4 32.28 23.5 40.23l4.7-7.95c-11.28-6.55-18.8-18.71-18.8-32.28 0-20.58 16.92-37.42 37.6-37.42s37.6 16.84 37.6 37.42c0 14.04-7.52 25.73-18.8 32.28l4.7 7.95a46.55 46.55 0 0 0 23.5-40.23c0-25.72-21.15-46.77-47-46.77z"/></defs><g><g transform="translate(-899 -334)"><use fill="#ededed" xlink:href="#7c4fa"/></g></g></svg>