<svg xmlns="http://www.w3.org/2000/svg" xmlns:xlink="http://www.w3.org/1999/xlink" width="59" height="98" viewBox="0 0 59 98"><defs><path id="9jmaa" d="M724.06 397.54v9.58a16.27 16.27 0 0 1 13.33 16V426H693.6v-2.87c0-8 5.76-14.65 13.33-16.01v-9.58A29.7 29.7 0 0 1 686 369.15v-11.48A29.62 29.62 0 0 1 715.5 328c16.27 0 29.5 13.3 29.5 29.67v11.48a29.7 29.7 0 0 1-20.94 28.4zm-5.7 1.28h-5.71v8.04h5.7zm0-12.44a2.86 2.86 0 0 0-2.86-2.87 2.86 2.86 0 0 0-2.85 2.87 2.86 2.86 0 0 0 2.85 2.87 2.86 2.86 0 0 0 2.85-2.87zm17.12-26.8c0-11.08-8.96-20.1-19.98-20.1a20.06 20.06 0 0 0-19.98 20.1c0 11.08 8.96 20.1 19.98 20.1a20.06 20.06 0 0 0 19.98-20.1z"/></defs><g><g transform="translate(-686 -328)"><use fill="#ededed" xlink:href="#9jmaa"/></g></g></svg>