<svg xmlns="http://www.w3.org/2000/svg" xmlns:xlink="http://www.w3.org/1999/xlink" width="58" height="100" viewBox="0 0 58 100"><defs><path id="k9m2a" d="M741 901.75v86.5a6.77 6.77 0 0 1-6.74 6.75h-44.52a6.77 6.77 0 0 1-6.74-6.76v-86.49a6.77 6.77 0 0 1 6.74-6.75h44.52c3.7 0 6.74 3.04 6.74 6.75zm-36.94-1.06c0 .45.37.82.82.82h14.24c.45 0 .82-.37.82-.82a.82.82 0 0 0-.82-.82h-14.24a.82.82 0 0 0-.82.82zm11.31 87.55a3.37 3.37 0 1 0-6.74 0 3.37 3.37 0 0 0 6.74 0zm20.94-82.53h-48.62v76.79h48.62z"/><path id="k9m2b" d="M698.33 944.22v-12.55h2.9v12.55zm4.83-4.83v-12.55h2.9v12.55zm20.27 4.83v-12.55h2.9v12.55zm-4.82-4.83v-12.55h2.9v12.55zm-20.28 20.28v-12.55h2.9v12.55zm4.83 4.83v-12.55h2.9v12.55zm20.27-4.83v-12.55h2.9v12.55zm-4.82 4.83v-12.55h2.9v12.55z"/></defs><g><g transform="translate(-683 -895)"><g><g><g><g><use fill="#ededed" xlink:href="#k9m2a"/></g></g></g></g><g><g><use fill="#a0cf4d" xlink:href="#k9m2b"/></g></g></g></g></svg>