<svg xmlns="http://www.w3.org/2000/svg" xmlns:xlink="http://www.w3.org/1999/xlink" width="100" height="72" viewBox="0 0 100 72"><defs><path id="kxpsa" d="M525.29 940.82l-.08-.03z"/><path id="kxpsb" d="M476.5 907l-4.4 9.63 52.94 24.16 4.3-9.53z"/><path id="kxpsc" d="M532.17 938.72l-1.23 2.68-1.22 2.69-3.44 7.5-1.22 2.7-1.23 2.68 6.82 3.13 8.35-18.24z"/><path id="kxpsd" d="M469.2 921.48l-5.85 12.93 16.83 7.82-6.57 11.34a9.07 9.07 0 0 0-10.02 6.07h-6.62v-3.62c0-5.23-4.2-9.49-9.35-9.49H439v32.2h8.62a9.43 9.43 0 0 0 9.35-9.5v-3.63h6.62a9.07 9.07 0 0 0 8.55 6.2 9.12 9.12 0 0 0 9.05-9.17 9.2 9.2 0 0 0-2.4-6.22l6.75-11.68 30.97 14.39 5.94-13.03z"/></defs><g><g transform="translate(-439 -907)"><g><use fill="#ededed" xlink:href="#kxpsa"/></g><g><use fill="#ededed" xlink:href="#kxpsb"/></g><g><use fill="#ededed" xlink:href="#kxpsc"/></g><g><use fill="#ededed" xlink:href="#kxpsd"/></g></g></g></svg>